<?xml version="1.0" encoding="utf-8"?>
<!-- Generator: Adobe Illustrator 24.0.2, SVG Export Plug-In . SVG Version: 6.00 Build 0)  -->
<svg version="1.1" id="Layer_1" xmlns="http://www.w3.org/2000/svg" xmlns:xlink="http://www.w3.org/1999/xlink" x="0px" y="0px"
	 viewBox="0 0 198 198" style="enable-background:new 0 0 198 198;" xml:space="preserve">
<style type="text/css">
	.st0{fill-rule:evenodd;clip-rule:evenodd;fill:#A90AFF;}
</style>
<title>brush-stroke</title>
<g id="Layer_2_1_">
	<g id="Layer_1-2">
		<path class="st0" d="M30,186.4c9.5,4.6,15.8,6,25.9,7.7c6.1,1.1,12.4,1.7,18.6,1.6c5.8-0.2,11.5-0.9,17.2-2.2
			c2.9-0.6,5.9-0.8,8.7-1.7c5.8-1.9,11.3-4.3,16.6-7.2c18.6-9.9,32.8-26.3,39.6-44.8c0.3-0.9,0.6-1.8,0.9-2.7
			c-7.5,21.8-25,40.6-47.9,50c-23.5,9.6-52.7,9.1-78.3-2.4c0.1-0.3,0.1-0.5,0.2-0.8c2.6,1,5.2,1.9,7.7,2.8c3.9,1.5,7.9,2.8,12,3.8
			c9.8,2.4,19.9,3.2,29.9,2.5c2.1-0.2,4.2-0.6,6.2-1.1l-0.3-0.6c-4.9,0.8-9.8,1.3-14.7,1.4c0.7-0.6,1.2-1,1.9-1.6
			c0.3,0,1.4,0.2,2.5,0.3c1,0.1,2,0.2,3,0.1c6-2.5,13.9-3.1,20.2-5.8c1.6-0.6,3.1-1.4,4.6-2.3c-3.6,1.4-7.3,2.6-11,3.5
			c-8.1,2.2-16.4,3.2-24.8,3c-3-0.1-6-1-9-1.4c-8-1-15.8-3-23.3-6.1c13.4,4.8,27.7,6.5,41.9,5.1c-0.1-0.2-0.1-0.3-0.2-0.5
			c-2.3,0.2-4.7,0.2-7,0.2c-3.6,0-7.4,0.2-10-1.5c-1.4-0.4-2.8-0.6-4.2-0.6c0.9,0.4,1.8,0.7,2.7,1.1c-5.4-0.9-11.8-1-16.1-4.4
			c-0.8-0.2-2.1-0.5-3.4-0.8c0-0.4-0.1-0.8-0.1-1.2c16.8,5.5,34.7,6.1,50.5,2l-0.1-0.3c-17.9,4.4-38.3,2.7-57-5.3l0.1-0.5
			c11.1,4.6,23.1,7,35.1,7.1c0-0.2,0-0.3-0.1-0.5c-7.4-0.2-14.7-1.4-21.8-3.4c0-0.1,0-0.3,0-0.4c12.2,3,25.3,4.1,34.9-0.1
			c0.9-0.5,1.9-0.9,2.9-1.3c12-2.9,23.3-8.2,33.2-15.6c5.1-3.8,9.6-8.2,13.4-13.3c1.4-2.2,2.8-4.4,3.9-6.7c2.3-4.1,4.1-8.4,5.4-12.8
			l-0.4-0.3c-2.5,6.6-6.1,12.8-10.6,18.2l-0.5-0.5c1.6-2,3-4.1,4.3-6.3l0,0l0,0v-0.1c3.9-6.1,6.9-12.8,7-20.3
			c-1.9,6.6-4.9,12.9-7,20.3l0,0c0.1-1.1,0.2-2.3,0.2-3.8c-2.2,4-4.9,7.7-8,11.1l-0.4-0.3c1.8-2.4,3.3-5,4.7-7.6l-0.2-0.2
			c-1.1,1.6-2.3,3.1-3.6,4.6l-0.4-0.6c4.5-6.5,8.1-13.5,9.5-21.1c-1.8,6-4.6,11.6-8.3,16.7c-0.1-0.1-0.2-0.2-0.2-0.3
			c3.8-6.4,6.3-13.4,7.3-20.8l-0.7-0.5c-0.7,2.8-1.7,5.6-2.9,8.3h-0.4c0-0.7,0-1.5,0.1-2.2c0.6-2.3,1.1-4.7,1.4-7.1
			c0.2-1.3,0.8-2.6-0.3-3.9c-0.1-0.4-0.1-0.9,0-1.3c0.8-5.5-0.8-11.3-2-16.7c-0.6-2.2-1.7-4.3-3.1-6.1c0.7,2,1.2,4,1.6,6.1l-0.2-0.1
			c-1.5-4.1-3.5-8.1-6.1-11.6c0.1,3.6,2,7.5,2.6,11.4l-0.5-0.1c-1.7-6.4-4.7-12.3-9-17.3h-0.2c1,1.6,1.9,3.3,2.6,5h-0.6
			c-1.4-2.6-3.1-5-5-7.2l-0.5,0.1c1.2,1.8,2.2,3.8,3.1,5.8l-0.5,0.1c-1.4-2-2.9-3.9-4.6-5.6c-1-1.2-2.2-2.3-3.5-3.3
			c-1.3-0.7-2.7-1.4-4.2-1.8c-3.8-1.6-7.9-2.5-12-2.7c-4-0.3-8.1,0.1-11.9,1.3c-5.1,2-10,4.9-12.4,9.8c-1,1.7-1.7,3.5-2.2,5.4
			c0.5-0.9,1-1.8,1.7-2.6l0.2,0.2c-0.4,0.9-0.7,1.8-1,2.8c-0.6,2.4-0.8,4.9-0.6,7.4c0.1,1.5,0.2,3,0.4,4.3c0,0.2-0.4,0.3-0.7,0.3
			s-0.7,0.1-1.2,0.2c-0.3-0.6-0.5-1.3-0.7-1.9c-0.2,0.7-0.4,1.3-0.6,2c-0.3,0.7-1.7,0.6-2.8-0.3c-0.2,0.7-0.3,1.4-0.5,2.2
			c-0.6-0.3-1.2-0.6-1.8-0.9c-0.3,0.8,0.2,2-1.3,2.3c-0.1,0,0.1,0.6,0.2,0.9c0.6,1.6,1,2.9,0.1,4.3c-0.3,0.5-0.1,1.2-0.3,1.7
			c-0.2,0.4-0.4,0.7-0.6,1.1c-0.6-0.2-1.2-0.5-1.8-0.8c-0.7-0.6-1.4-1.2-1.9-1.9c-0.4,0.6-0.8,1.2-1.2,1.8c-0.8,1.7-0.8,1.9-3.2,0.4
			c-0.3,1.7-1.7,1.3-3.3,0.1c-1.4-1-2.7-2.1-3.9-3.3c0.3,1.7-3.3,1.2-0.6,4.6c0.5,0.6-0.1,2-0.2,3.3c-1.5-1.3-2.6-2.7-2.7-4.5
			c0-0.4-0.8-1.2-1.2-1.8c-0.3,0.4-0.8,0.6-0.7,1.1c0.3,1.5,0.8,3,1.3,4.4c-0.9,0.1-1.9-0.2-2.5,0.2c-0.5,0.6-0.7,1.5-0.6,2.3
			c0,2.3-1.1,2.6-3.4,0.5c-0.8-0.8-1.7-1.3-2.7-2.1c0-0.4-0.1-1-0.2-1.6c-1.4-1.5-3.4-1.8-3.5-0.2c-0.1,1.9-0.7,1.8-2.4,1
			c-3.7-1.7-4.2-6.5-5.8-10c-0.3-0.9-0.6-1.7-0.7-2.6c-0.2,2.6-0.2,5.2-0.1,7.8l-0.8-0.1c-2.1-5.8-3.6-12-4.3-18.3L6,87.3
			c-0.5,2.3-0.8,4.6-1.1,6.9l-0.4-0.5C4.3,88.1,4.7,82.5,5.7,77c-0.1-0.2-0.3-0.3-0.4-0.5c-1.4,4.6-2.5,9.2-3,14l-0.7-0.7
			c-0.1-3.9,0.2-7.7,0.7-11.5c-0.2-0.2-0.4-0.4-0.6-0.6c-0.6,2.4-1,4.8-1.3,7.2L0,84.6c0.6-14.2,5.1-27.9,13-39.8l-0.2-0.5
			c-1,1.3-1.9,2.6-2.8,4l-0.1-0.2c1.6-3,3.5-5.8,5.4-8.6C27.1,22.1,44.6,9.4,64.9,3.6c7.2-2,14.7-3.2,22.2-3.5
			c8.8-0.4,17.5,0.4,26.1,2.4c14.6,3.7,28.3,10.4,40.2,19.6c3.9,3,7.7,6.1,11.3,9.5c-1.7-1.2-2.6-1.8-3.5-2.4
			c28.5,25.2,42.5,67.3,34.8,105.2l-0.6-0.1c1.2-6.2,1.8-12.4,2-18.7l-0.5-0.2c-0.3,7.8-1.4,15.5-3.2,23.1l-0.1-0.1
			c5.3-25.1,2.1-51.3-9-74.4l-0.5,0.2c1.3,2.7,2.4,5.4,3.5,8.2l-0.3,0.1c-5.1-12-12.3-22.9-21.1-32.5c-0.1,0.1-0.2,0.3-0.2,0.4
			c8.8,9.6,15.8,20.7,20.7,32.8c4.5,11.8,6.9,24.3,7.3,36.9c0.3,13.4-2.1,26.8-6.9,39.3l-0.5-0.4c4-10.8,6.2-22.2,6.6-33.7
			c0.1-4.2-0.2-8.4-0.8-12.6c-0.9-7.6-2.5-15.1-4.9-22.4c-0.1-0.3-0.2-0.7-0.3-1c-0.7-2.2-0.3-4.4-2.1-6.6c0-0.7-0.1-1.3-0.1-1.6
			c-1.6-2.9-3.1-5.3-4.7-7.8c-3.1-5-6.6-9.7-10.4-14.2c-2-2.4-3.9-5.2-6-7.5c-1.6-1.7-3.4-3.3-5.2-4.7c0,0.3-0.1,0.5-0.1,0.8
			c1,1,2.1,2,3,3.1c2.6,2.9,4.8,6.1,7.1,9.2c2.5,3.3,4.9,6.7,7.1,10.3c3.1,5.2,5.7,10.7,7.8,16.4L183,77
			c-5-12.1-12.2-23.3-21.1-32.8l-0.2,0.2c3.8,4.5,7.2,9.3,10.2,14.4l-0.4,0.2c-10.6-17-25.6-31.6-43.4-38c4.8,2.4,9.4,5.2,13.7,8.4
			c1.8,1.3,4,2.7,4.2,4.3c0,0.4,2.7,2.6,4.1,4l0.5-0.1l-1.1-1.5C168,51.7,180.5,73.2,185,97l-0.6,0.3c-1.5-7.8-3.9-15.3-7.2-22.6
			c-1.6-3.7-3.5-7.3-5.7-10.7c-0.7-1-1.6-1.8-2.5-2.5c-0.2-1-0.5-1.8-0.7-2.7c-0.9-0.5-1.8-1-2.8-1.5c15.1,23.5,20,52.2,13.4,79.4
			l-0.5-0.2c2.3-9.7,3.1-19.6,2.4-29.5l-0.5-0.2c0.2,4.5,0.1,9.1-0.3,13.6c-0.4,4.8-1.2,9.6-2.4,14.4c6.2-28.4-0.4-59.9-19.1-81.2
			c-0.4-1-0.9-2.1-1.6-3.6c-0.9-0.2-1.6-0.4-2.6-0.7c3.2,3.7,6.1,7.6,8.6,11.7c4.8,7.7,8.5,16.1,10.9,24.8c1.2,4,2.1,8.1,2.8,12.2
			c0.2,1.6,0.4,3.3,0.4,4.9c0.1,2.7-0.3,5.5,1.1,7.3c0.3,0.4,0.4,2.5,0.3,4.3c-0.2-0.7-0.4-1.3-1-2.9c0,4.7-0.3,9.4-1,14l-0.8-0.2
			c2.4-18.8-0.8-37.9-9.2-54.9c0,0.6,0,0.9,0,1.3c-0.4-0.8-1-1.6-1.3-2.3c-0.8-2-1.5-3.9-2.4-5.8l-0.7-0.2c0.5,1,0.9,2,1.6,3.6
			c-1.2-1.6-2.1-2.7-3.1-3.9c1.1,4.2,2.7,8.3,4.7,12.2c2.4,4.6,4.2,9.4,5.5,14.4c0.4,2,0.7,4,0.8,6c-0.8-1.5-1.6-3-2.5-4.5l-0.3,0.2
			c1.8,6,3,12.2,3.6,18.5v0c0.3,4.1,0.3,8.2,0.1,12.2l-0.5,0.1c0.3-8.3-0.6-16.6-2.6-24.6l-0.3,0.1c1.1,5.3,1.7,10.7,1.8,16.2
			c0,0.5,0,1-0.1,1.5c-0.3,3.1-1,6.2-1.2,9.1c-0.9,11-5.4,20.9-10.5,30.5c-3.5,6.6-8.2,12.1-13.1,17.6c-2.8,3.3-5.8,6.4-9.1,9.3
			c1.8-2.5,3.4-5.1,4.9-7.8c-2.2,2-3.8,3.3-5.4,4.5l-0.1-0.1c4.5-4,8.6-8.5,12.2-13.4l-0.1-0.2c-2.3,2.8-4.8,5.5-7.5,8
			c-2.7,2.4-5.6,4.7-8.6,6.7c-0.8,0.8-2.1,2.1-3.5,3.4c0.8-1.9,0.7-2.4-2.5-0.4c-14.2,9.1-30.6,14.3-47.4,15
			c-3.9,0.2-7.8,0.2-11.8-0.2c-1.3-0.2-2.7-0.5-3.9-0.9c-1.9,0-3.8-0.1-5.6-0.4c-11.3-1.8-22.2-5.3-32.4-10.4L30,186.4z M9.2,95.5
			c0.1,2.4,0.3,4.7,0.7,7.1l0.7,0.3c-0.3-2.3-0.6-4.7-0.7-7L9.2,95.5z M54.2,92.7c0.1,1.1,0.3,2.1,0.6,3.2
			C55.9,94.6,55.8,94.1,54.2,92.7L54.2,92.7z M4.3,66.1l0.4,0.3c1.1-3.7,2.4-7.3,4-10.8L8.4,55C6.7,58.6,5.4,62.3,4.3,66.1z
			 M130.6,32.4c-0.1,0.2-0.1,0.3-0.2,0.5c3.8,2.2,7.5,4.7,11,7.4l0.2-0.6C138.1,37,134.7,33.9,130.6,32.4z M159.6,60
			c-2.4-3.6-5-7-7.8-10.2c-2.1-0.4-2.7-0.9-4.6-3.7c1,0.6,2,1.3,3.4,2.2c-5.8-7-6.1-6.8-10.5-7.4c-0.5-0.6-1.1-1.2-1.6-1.8l-0.7,0.1
			c1,0.9,1.9,2,2.9,2.8c3.7,2.8,7.1,5.8,10.4,9.1c1,1.3,2,2.6,2.9,4c0.6,1,1.4,1.9,2.2,2.7C157.2,58.7,158.4,59.4,159.6,60z
			 M169.4,88.2c-1.7-5.8-4.1-11.4-6.9-16.7l-0.6,0.3c2.8,5.3,5.2,10.8,6.9,16.6L169.4,88.2z M84.5,180.9c0,0.1,0.1,0.2,0.1,0.3
			c4.8-0.8,9.5-2.1,14-3.8l-0.2-0.3C93.9,178.7,89.3,180,84.5,180.9z M113.3,170.9L113.3,170.9c5.8-3.3,11.1-7.4,15.7-12.2l-0.1-0.1
			C124.3,163.4,119,167.5,113.3,170.9z M143.2,137.1c-2.8,6.7-6.6,12.9-11.4,18.4l0.1,0.1c4.8-5.5,8.6-11.7,11.4-18.5H143.2z
			 M148.2,116.6c-0.5,5.8-1.7,11.4-3.6,16.9l0.1,0.1c1.9-5.5,3.1-11.1,3.6-16.9L148.2,116.6z M116.5,70.4c1.4,1.6,2.6,3.3,3.8,5.1
			l0.6-0.1c-1.1-1.8-2.3-3.6-3.6-5.3L116.5,70.4z M150.8,91.8h-0.2c4.4,15.9,3.3,32.7-3.1,47.9c-7.1,16.3-19.7,29.5-35.6,37.6
			c0,0.1,0,0.1,0.1,0.2c15.9-8,28.5-21.3,35.6-37.6C154.2,124.6,155.3,107.7,150.8,91.8z"/>
	</g>
</g>
</svg>
