<svg width="126" height="112" viewBox="0 0 126 112" fill="none" xmlns="http://www.w3.org/2000/svg">
<path opacity="0.2" d="M63.9996 6H62.9968V106H63.9996V6Z" fill="white"/>
<path d="M63.9996 33.1167H62.9968V78.8833H63.9996V33.1167Z" fill="white"/>
<path d="M39 25H38V59H39V25Z" fill="white"/>
<path opacity="0.2" d="M38.9998 6H37.9971V106H38.9998V6Z" fill="white"/>
<path opacity="0.2" d="M88.9988 6H87.9966V106H88.9988V6Z" fill="white"/>
<path d="M88.9988 18.5858H87.9966V60.5767H88.9988V18.5858Z" fill="white"/>
<path opacity="0.2" d="M113.999 6H112.996V106H113.999V6Z" fill="white"/>
<path d="M114 42H113V86H114V42Z" fill="white"/>
<path opacity="0.2" d="M14.0027 6H13V106H14.0027V6Z" fill="white"/>
<path d="M14 66H13V99H14V66Z" fill="white"/>
<rect x="61.9974" width="3" height="3" fill="white"/>
<rect x="61.9974" y="109" width="3" height="3" fill="white"/>
</svg>
