<svg width="50" height="50" viewBox="0 0 50 50" fill="none" xmlns="http://www.w3.org/2000/svg">
<path d="M25 14.5161C22.9265 14.5161 20.8995 15.131 19.1755 16.283C17.4514 17.435 16.1077 19.0723 15.3142 20.988C14.5207 22.9037 14.3131 25.0116 14.7176 27.0453C15.1221 29.079 16.1206 30.947 17.5868 32.4132C19.053 33.8794 20.921 34.8779 22.9547 35.2824C24.9884 35.687 27.0963 35.4793 29.012 34.6858C30.9277 33.8923 32.565 32.5486 33.717 30.8245C34.869 29.1005 35.4839 27.0735 35.4839 25C35.4839 22.2195 34.3793 19.5529 32.4132 17.5868C30.4471 15.6207 27.7805 14.5161 25 14.5161V14.5161ZM25 27.4194C24.5215 27.4194 24.0537 27.2775 23.6559 27.0116C23.258 26.7458 22.9479 26.3679 22.7648 25.9258C22.5817 25.4838 22.5338 24.9973 22.6271 24.528C22.7205 24.0587 22.9509 23.6276 23.2893 23.2893C23.6276 22.9509 24.0587 22.7205 24.528 22.6271C24.9973 22.5338 25.4838 22.5817 25.9258 22.7648C26.3679 22.9479 26.7458 23.258 27.0116 23.6559C27.2775 24.0537 27.4194 24.5215 27.4194 25C27.4194 25.6417 27.1645 26.257 26.7107 26.7107C26.257 27.1645 25.6417 27.4194 25 27.4194ZM25 0C11.1895 0 0 11.1895 0 25C0 38.8105 11.1895 50 25 50C38.8105 50 50 38.8105 50 25C50 11.1895 38.8105 0 25 0ZM25 37.9032C22.448 37.9032 19.9533 37.1465 17.8314 35.7286C15.7094 34.3108 14.0556 32.2956 13.079 29.9379C12.1024 27.5801 11.8468 24.9857 12.3447 22.4827C12.8426 19.9797 14.0715 17.6806 15.876 15.876C17.6806 14.0715 19.9797 12.8426 22.4827 12.3447C24.9857 11.8468 27.5801 12.1024 29.9379 13.079C32.2956 14.0556 34.3108 15.7094 35.7286 17.8314C37.1465 19.9533 37.9032 22.448 37.9032 25C37.9032 28.4221 36.5438 31.7041 34.124 34.124C31.7041 36.5438 28.4221 37.9032 25 37.9032Z" fill="white"/>
</svg>
